<?xml version="1.0" encoding="UTF-8"?><svg id="a" xmlns="http://www.w3.org/2000/svg" xmlns:xlink="http://www.w3.org/1999/xlink" viewBox="0 0 410.96 177.09"><defs><style>.d{fill:url(#c);}.e{fill:url(#b);}.f,.g,.h{fill:#231f20;}.i{fill:#543206;}.g{font-family:ArialMT, Arial;font-size:12px;}.j{fill:none;stroke:#231f20;stroke-miterlimit:10;}.h{font-family:MyriadPro-Regular, 'Myriad Pro';font-size:14px;}</style><linearGradient id="b" x1="383.24" y1="8.6" x2="383.24" y2="159.32" gradientTransform="translate(489.63) rotate(-180) scale(1 -1)" gradientUnits="userSpaceOnUse"><stop offset="0" stop-color="#aee2fa"/><stop offset=".1" stop-color="#aadff8"/><stop offset=".18" stop-color="#a1d8f4"/><stop offset=".25" stop-color="#91ccee"/><stop offset=".32" stop-color="#7abbe5"/><stop offset=".38" stop-color="#5da4d9"/><stop offset=".38" stop-color="#5ca4d9"/></linearGradient><linearGradient id="c" x1="304.2" y1="8.6" x2="304.2" y2="159.32" gradientTransform="matrix(1,0,0,1,0,0)" xlink:href="#b"/></defs><path class="i" d="m7.49,8.6s10.07,5.17,30.48,36.14c26.12,39.62,30.99,93.65,63.86,110.76,17.33,9.02,46.5,15.76,103.46,15.76V8.6H7.49Z"/><path class="i" d="m403.1,8.6s-10.07,5.17-30.48,36.14c-26.12,39.62-30.99,93.65-63.86,110.76-17.33,9.02-46.5,15.76-103.46,15.76V8.6h197.8Z"/><path class="e" d="m7.49,8.6s22.88,16.04,42.73,45.58c33.02,49.16,34.65,78.68,68.77,93.52,18.06,7.86,58.53,11.62,86.3,11.62V8.6H7.49Z"/><path class="d" d="m403.1,8.6s-22.88,16.04-42.73,45.58c-33.02,49.16-34.65,78.68-68.77,93.52-18.06,7.86-58.53,11.62-86.3,11.62V8.6h197.8Z"/><text class="g" transform="translate(109.87 33.27) scale(1.06 1)"><tspan x="0" y="0">Surface-water </tspan><tspan x="0" y="12">phosphorus</tspan></text><text class="g" transform="translate(235.02 33.95) scale(1.06 1)"><tspan x="0" y="0">Surface-water</tspan><tspan x="0" y="12">phytoplankton</tspan></text><text class="g" transform="translate(254.04 91.33) scale(1.06 1)"><tspan x="0" y="0">Oxygen </tspan><tspan x="0" y="12">consumption</tspan></text><text class="g" transform="translate(180.21 126) scale(1.06 1)"><tspan x="0" y="0">Bottom-water</tspan><tspan x="0" y="12">oxygen</tspan></text><path class="j" d="m189.3,36.74c7.99-1.38,15.29-.7,20.01-.04"/><polygon class="f" points="214.55 37.42 206.75 39.48 208.9 36.69 207.54 33.43 214.55 37.42"/><text class="g" transform="translate(94.8 90.33) scale(1.06 1)"><tspan x="0" y="0">Bottom-water </tspan><tspan x="0" y="12">phosphorus</tspan></text><path class="j" d="m125.41,111.94c6.67,15.29,23.49,21.03,35.44,21.16"/><polygon class="f" points="123.69 106.93 123.36 114.98 125.62 112.28 129.09 112.91 123.69 106.93"/><path class="j" d="m287.41,108.85c-4.26,16.64-19.35,24.06-31.87,25.78"/><polygon class="f" points="250.26 135.03 257.44 131.36 255.93 134.55 257.96 137.43 250.26 135.03"/><path class="j" d="m273.5,51.25c6.86,4.08,14.26,8.43,16.29,22.93"/><polygon class="f" points="290.26 79.45 286.5 72.32 289.71 73.79 292.57 71.73 290.26 79.45"/><text class="h" transform="translate(96.91 39.43)"><tspan x="0" y="0">+</tspan></text><text class="h" transform="translate(166.41 132.39)"><tspan x="0" y="0">–</tspan></text><text class="h" transform="translate(240.91 98.1)"><tspan x="0" y="0">+</tspan></text><text class="h" transform="translate(82 96.1)"><tspan x="0" y="0">+</tspan></text><text class="h" transform="translate(222.99 40.05)"><tspan x="0" y="0">+</tspan></text><path class="j" d="m134.63,54.05c-6.1,4.17-11.6,10.29-12.27,25.4"/><polygon class="f" points="139.12 51.25 131.19 52.69 134.32 54.31 134.47 57.83 139.12 51.25"/></svg>